<?xml version="1.0" encoding="UTF-8" standalone="no"?>
<!-- Created with Inkscape (http://www.inkscape.org/) -->
<svg
   xmlns:dc="http://purl.org/dc/elements/1.1/"
   xmlns:cc="http://creativecommons.org/ns#"
   xmlns:rdf="http://www.w3.org/1999/02/22-rdf-syntax-ns#"
   xmlns:svg="http://www.w3.org/2000/svg"
   xmlns="http://www.w3.org/2000/svg"
   xmlns:sodipodi="http://sodipodi.sourceforge.net/DTD/sodipodi-0.dtd"
   xmlns:inkscape="http://www.inkscape.org/namespaces/inkscape"
   id="svg4868"
   sodipodi:version="0.32"
   inkscape:version="0.46"
   width="70"
   height="92"
   version="1.0"
   sodipodi:docname="Caballo.svg"
   inkscape:output_extension="org.inkscape.output.svg.inkscape">
  <metadata
     id="metadata4873">
    <rdf:RDF>
      <cc:Work
         rdf:about="">
        <dc:format>image/svg+xml</dc:format>
        <dc:type
           rdf:resource="http://purl.org/dc/dcmitype/StillImage" />
      </cc:Work>
    </rdf:RDF>
  </metadata>
  <defs
     id="defs4871">
    <inkscape:perspective
       sodipodi:type="inkscape:persp3d"
       inkscape:vp_x="0 : 526.18109 : 1"
       inkscape:vp_y="0 : 1000 : 0"
       inkscape:vp_z="744.09448 : 526.18109 : 1"
       inkscape:persp3d-origin="372.04724 : 350.78739 : 1"
       id="perspective4875" />
  </defs>
  <sodipodi:namedview
     inkscape:window-height="804"
     inkscape:window-width="871"
     inkscape:pageshadow="2"
     inkscape:pageopacity="0.0"
     guidetolerance="10.0"
     gridtolerance="10.0"
     objecttolerance="10.0"
     borderopacity="1.0"
     bordercolor="#666666"
     pagecolor="#ffffff"
     id="base"
     showgrid="false"
     inkscape:zoom="4"
     inkscape:cx="26.579241"
     inkscape:cy="64.447485"
     inkscape:window-x="6"
     inkscape:window-y="53"
     inkscape:current-layer="svg4868" />
  <path
     style="fill:#000000"
     d=""
     id="path5432" />
  <path
     style="fill:#000000"
     d=""
     id="path4885" />
  <path
     style="fill:#000000"
     d=""
     id="path4883" />
  <path
     style="fill:#000000"
     d=""
     id="path4881" />
  <path
     style="fill:#000000"
     d=""
     id="path4879" />
  <path
     style="fill:#00ff00;fill-opacity:1;fill-rule:evenodd;stroke:#000000;stroke-width:3;stroke-linecap:butt;stroke-linejoin:miter;stroke-miterlimit:4;stroke-dasharray:none;stroke-opacity:1"
     d="M 36.855713,1.132845 L 24.909371,11.333682 C 24.909371,11.333682 26.256408,10.248763 25.484619,10.847674 C 20.813503,14.472481 15.777786,20.876234 12.469156,26.538703 C 9.2008519,32.132158 6.3753029,40.645979 5.1709899,47.132845 C 4.1300129,52.73993 3.5575249,60.588666 4.6369779,66.187239 C 6.1677889,74.126779 15.317221,90.630753 15.317221,90.630753 L 52.342067,90.823222 L 52.52007,89.091004 C 52.52007,89.091004 56.093541,88.987412 57.32618,88.128661 C 59.679807,86.488943 61.779097,82.723894 62.666303,79.852511 C 63.140405,78.318111 63.376608,75.97531 62.844306,74.463389 C 60.425573,67.593354 47.179949,56.756276 47.179949,56.756276 C 47.179949,56.756276 45.03404,53.230736 45.221904,51.559624 C 45.484834,49.220768 47.705595,46.554172 49.494002,45.208159 C 50.950937,44.111622 55.190132,43.475942 55.190132,43.475942 L 63.556323,43.283473 C 63.556323,43.283473 65.655675,42.045387 66.226383,41.166318 C 67.313737,39.491452 68.049956,36.668175 68.006424,34.622385 C 67.968744,32.851619 67.102921,30.537128 66.226383,29.040795 C 64.508832,26.108771 58.572209,20.957113 58.572209,20.957113 C 58.572209,20.957113 49.935842,14.839237 45.755916,13.450837 C 44.729887,13.110032 42.593583,13.0659 42.593583,13.0659 C 42.593583,13.0659 42.178859,11.44329 40.996455,8.490847 C 40.072729,6.184319 36.855713,1.132845 36.855713,1.132845 z"
     id="path5434"
     sodipodi:nodetypes="ccsssscccssscssccssscscsc" />
</svg>
