<?xml version="1.0" encoding="UTF-8" standalone="no"?>
<!-- Created with Inkscape (http://www.inkscape.org/) -->
<svg
   xmlns:dc="http://purl.org/dc/elements/1.1/"
   xmlns:cc="http://creativecommons.org/ns#"
   xmlns:rdf="http://www.w3.org/1999/02/22-rdf-syntax-ns#"
   xmlns:svg="http://www.w3.org/2000/svg"
   xmlns="http://www.w3.org/2000/svg"
   xmlns:sodipodi="http://sodipodi.sourceforge.net/DTD/sodipodi-0.dtd"
   xmlns:inkscape="http://www.inkscape.org/namespaces/inkscape"
   id="svg2522"
   sodipodi:version="0.32"
   inkscape:version="0.46"
   width="592"
   height="547"
   version="1.0"
   sodipodi:docname="Dragon.svg"
   inkscape:output_extension="org.inkscape.output.svg.inkscape">
  <metadata
     id="metadata2527">
    <rdf:RDF>
      <cc:Work
         rdf:about="">
        <dc:format>image/svg+xml</dc:format>
        <dc:type
           rdf:resource="http://purl.org/dc/dcmitype/StillImage" />
      </cc:Work>
    </rdf:RDF>
  </metadata>
  <defs
     id="defs2525">
    <inkscape:perspective
       sodipodi:type="inkscape:persp3d"
       inkscape:vp_x="0 : 526.18109 : 1"
       inkscape:vp_y="0 : 1000 : 0"
       inkscape:vp_z="744.09448 : 526.18109 : 1"
       inkscape:persp3d-origin="372.04724 : 350.78739 : 1"
       id="perspective2529" />
  </defs>
  <sodipodi:namedview
     inkscape:window-height="678"
     inkscape:window-width="1045"
     inkscape:pageshadow="2"
     inkscape:pageopacity="0.0"
     guidetolerance="10.0"
     gridtolerance="10.0"
     objecttolerance="10.0"
     borderopacity="1.0"
     bordercolor="#666666"
     pagecolor="#ffffff"
     id="base"
     showgrid="false"
     inkscape:zoom="0.8738574"
     inkscape:cx="221.34919"
     inkscape:cy="273.5"
     inkscape:window-x="158"
     inkscape:window-y="150"
     inkscape:current-layer="svg2522" />
  <path
     style="fill:#00ff00;stroke:#000000;stroke-width:4.5;stroke-miterlimit:4;stroke-dasharray:none;stroke-opacity:1"
     d="M 174.40564,506.29702 C 177.77105,503.36944 185.67366,498.24676 186.21041,498.64487 C 186.56529,498.90808 186.62273,498.81552 186.33806,498.43918 C 186.05338,498.06284 187.26572,496.26381 189.03213,494.44133 C 192.03313,491.34509 192.12675,491.04216 190.45942,489.82297 C 188.83714,488.63673 188.81951,488.39831 190.26534,487.19837 C 192.83281,485.06756 192.11264,480.7923 188.18044,474.82132 C 185.14571,470.21315 184.19985,469.40403 182.75288,470.17843 C 181.78908,470.69423 180.21911,470.8164 179.26404,470.44991 C 178.19868,470.04109 177.77139,470.17809 178.15845,470.80437 C 178.50913,471.37179 177.11295,472.37845 175.01498,473.07084 C 171.75965,474.1452 169.94209,474.01402 161.79812,472.11695 C 156.60476,470.9072 149.32244,469.43128 145.6152,468.83712 C 139.28011,467.82181 138.73499,467.88814 136.55074,469.94014 C 135.27253,471.14095 133.67501,472.12343 133.00069,472.12343 C 131.29923,472.12343 125.81906,476.11589 123.39228,479.12343 C 122.2828,480.49843 120.35817,482.65638 119.11533,483.91888 C 117.8725,485.18138 116.85563,486.64388 116.85563,487.16888 C 116.85563,487.69388 116.40563,488.12343 115.85563,488.12343 C 115.30563,488.12343 114.8776,487.56093 114.90445,486.87343 C 114.96364,485.35814 121.74641,475.38298 127.71035,468.0403 L 132.06508,462.67886 L 128.21035,460.97531 C 126.09026,460.03836 123.78631,459.23838 123.09049,459.19759 C 121.75182,459.11912 107.22298,470.1845 105.11596,472.88725 C 104.43415,473.76185 103.65988,474.26101 103.39537,473.99651 C 103.13087,473.732 104.58872,471.46321 106.63504,468.95474 C 108.68136,466.44628 112.37335,461.71013 114.83946,458.42998 C 117.30557,455.14982 120.89488,451.24109 122.81571,449.74391 C 126.08214,447.19791 126.39113,447.13528 127.59092,448.7761 C 128.7668,450.38421 129.27173,450.1384 133.64902,445.82693 C 136.27544,443.24 138.74637,441.12343 139.13999,441.12343 C 139.5336,441.12343 140.74543,442.01322 141.83296,443.10075 C 142.95393,444.22172 144.48744,444.81821 145.37385,444.47807 C 146.36182,444.09895 146.83034,444.36667 146.64653,445.20529 C 146.48654,445.93527 146.80564,446.58049 147.35564,446.63911 C 147.90564,446.69773 151.24789,448.18069 154.78285,449.93456 C 158.31782,451.68844 162.16999,453.12343 163.34324,453.12343 C 165.30692,453.12343 171.47124,450.89953 181.24767,446.66406 C 183.4408,445.71392 186.18647,445.24063 187.53778,445.57979 C 188.85673,445.91082 192.05532,445.89319 194.64576,445.54061 C 198.73814,444.98359 199.82959,444.29146 202.97057,440.26149 C 208.68591,432.92854 212.11383,425.34968 212.0119,420.27181 C 211.95536,417.45457 212.59458,414.88704 213.76493,413.23057 C 216.05547,409.98863 217.4531,404.12343 215.9351,404.12343 C 215.34139,404.12343 214.84875,404.68593 214.84033,405.37343 C 214.82938,406.26692 214.57296,406.22536 213.94125,405.22771 C 213.4298,404.41998 212.34481,404.10548 211.36578,404.48116 C 210.39466,404.85382 208.54138,404.33258 207.01486,403.25747 C 202.0392,399.75315 195.74696,397.02315 193.9559,397.59161 C 191.82974,398.26643 188.75733,396.00178 179.7604,387.12823 C 168.35115,375.87543 162.58678,371.21982 158.22183,369.73254 C 153.58673,368.1532 153.88084,367.86483 153.74349,374.12343 C 153.62829,379.37318 155.67047,384.95818 159.69955,390.41213 C 164.6121,397.06201 175.11852,406.12343 177.91629,406.12343 C 179.69767,406.12343 179.81569,406.61198 179.23266,411.57265 C 178.50883,417.73134 180.70702,426.19688 183.93431,429.67933 C 185.83177,431.72681 185.80713,431.75484 177.91159,436.52789 C 169.84633,441.40356 166.48644,441.91632 169.34492,437.83528 C 170.90269,435.61124 171.45366,429.12343 170.08475,429.12343 C 169.66077,429.12343 168.21598,427.11365 166.87411,424.65725 C 164.20954,419.77952 164.23323,419.78351 155.34918,422.71524 C 151.73912,423.90656 150.40342,423.78726 141.84918,421.50945 C 131.99665,418.88594 127.34296,417.68821 122.52881,416.53692 C 120.45312,416.04054 118.93601,416.42722 116.8193,417.99217 C 115.23382,419.16436 113.07349,420.12343 112.01857,420.12343 C 110.96364,420.12343 109.53883,420.80023 108.85231,421.62743 C 108.1658,422.45462 106.23843,423.4853 104.56927,423.91783 C 102.78778,424.37946 101.42525,425.44812 101.27006,426.50546 C 100.83064,429.49945 99.855631,429.64448 99.855631,426.71586 C 99.855631,424.75915 101.42922,422.32521 105.35563,418.20878 C 108.38063,415.03738 110.85394,411.80829 110.85188,411.03302 C 110.84982,410.25774 108.79979,408.781 106.29626,407.75137 C 101.81318,405.9076 101.71122,405.90919 99.550011,407.8567 C 95.090451,411.87528 83.856111,420.14287 83.870371,419.39568 C 83.898821,417.90459 100.92427,398.7599 103.75011,397.04141 C 106.28698,395.49864 106.77523,395.47161 108.10393,396.8003 C 109.43263,398.129 110.1297,397.78245 114.31982,393.71013 C 119.54232,388.63444 121.34697,388.07032 122.17934,391.25331 C 122.56381,392.72349 123.24241,393.18899 124.37028,392.75618 C 126.13856,392.07763 129.20987,394.43585 128.05801,395.58772 C 127.6717,395.97403 127.80563,396.16008 128.35563,396.00116 C 128.90563,395.84225 130.79578,396.47975 132.55597,397.41783 C 134.31616,398.35591 137.46616,399.13938 139.55598,399.15887 C 141.64579,399.17835 144.48064,399.83741 145.85564,400.62343 C 148.64165,402.21606 154.44255,402.60084 155.27837,401.24845 C 156.20105,399.75553 145.83604,387.01772 142.50011,385.54493 C 138.3955,383.73278 136.88603,382.43955 133.31494,377.67563 C 131.68732,375.50434 129.00563,372.32518 127.35563,370.61084 C 120.88444,363.88731 119.58176,362.12411 119.45391,359.91581 C 119.35526,358.21171 118.81237,357.71198 117.33841,357.9685 C 116.24788,358.15829 115.68495,357.97897 116.08744,357.57002 C 116.48994,357.16107 116.00667,356.10579 115.01351,355.22495 C 112.17326,352.70592 109.85563,347.17537 109.85563,342.91674 C 109.85563,338.20219 113.0384,333.14936 118.48711,329.21377 C 123.85178,325.33888 128.03459,324.12343 136.00485,324.12343 C 139.77279,324.12343 142.85564,323.73412 142.85564,323.25829 C 142.85564,322.78246 141.93102,321.21769 140.80093,319.78101 C 137.28993,315.3175 125.13876,289.14875 121.45768,278.12343 C 119.52956,272.34843 117.64479,264.60171 117.26931,260.90849 C 116.65324,254.84883 116.85727,253.62901 119.36011,248.40849 C 123.17907,240.44272 131.93744,226.12343 132.99074,226.12343 C 133.46643,226.12343 133.75081,225.78593 133.6227,225.37343 C 133.49459,224.96093 137.0392,218.54843 141.49961,211.12343 C 151.72697,194.09849 152.85564,191.84885 152.85564,188.48881 C 152.85564,183.7477 149.00718,177.40501 143.82021,173.59742 C 137.90161,169.25278 132.92569,168.19228 129.375,170.51878 C 127.21884,171.93155 126.85563,172.91683 126.85563,177.35304 C 126.85563,181.75115 126.26884,183.37647 122.98286,188.07999 C 118.42044,194.61058 107.93892,214.29062 104.86106,222.10536 C 100.4707,233.25253 100.24215,241.3636 104.04438,251.08758 C 104.57432,252.44287 105.17575,256.71787 105.3809,260.58758 C 105.68469,266.31805 105.61639,266.7488 105.01277,262.9093 C 103.67118,254.37568 97.072781,250.47755 91.988041,255.21471 C 90.753441,256.36491 88.531091,259.85241 87.049471,262.96471 C 84.545931,268.2237 84.369241,269.46116 84.548291,280.48275 C 84.654251,287.00538 84.542331,292.14346 84.299591,291.90072 C 82.955491,290.55662 77.053471,277.09907 76.503081,274.12343 C 75.900011,270.86299 75.450721,270.50445 69.938851,268.88518 C 63.854094,267.09761 60.484694,264.7517 61.137554,262.75736 C 61.341714,262.1337 63.409594,260.34088 65.732854,258.77331 C 68.056101,257.20575 71.141751,254.05575 72.589841,251.77331 C 75.382941,247.37091 80.633741,234.31063 81.294041,230.12343 C 81.510861,228.74843 82.175931,226.0514 82.771951,224.13003 C 83.367981,222.20866 83.856331,219.05866 83.857191,217.13003 C 83.858041,215.2014 84.733111,212.04843 85.801781,210.12343 C 90.685691,201.32604 93.905601,194.35835 94.467291,191.37178 C 94.886391,189.14337 96.806971,186.54071 100.57045,183.10109 C 105.2833,178.79381 105.96998,177.71519 105.41275,175.49498 C 104.85452,173.27083 104.38411,173.00109 102.05953,173.57217 C 100.57239,173.93751 97.034641,174.61656 94.197871,175.08116 C 86.028971,176.41904 83.329841,178.12348 83.495051,181.83974 C 83.597331,184.14038 83.264351,184.83376 82.245051,184.44262 C 81.457291,184.14033 80.855631,184.53032 80.855631,185.34325 C 80.855631,186.34809 80.009731,186.65289 78.028151,186.36206 C 76.281351,186.10568 72.695141,187.08313 68.645251,188.91944 C 61.934004,191.96247 58.212184,195.89582 51.893404,206.62343 C 47.475084,214.12456 44.969284,216.12343 39.984154,216.12343 C 37.510634,216.12343 32.827814,216.86952 29.577884,217.7814 C 22.426534,219.78797 21.893374,219.30785 21.870954,210.84131 C 21.850424,203.09101 23.946484,198.12343 27.237224,198.12343 C 30.028984,198.12343 30.770174,196.5762 31.740914,188.72194 C 32.308794,184.12728 32.606304,183.6834 35.645154,182.89702 C 37.636304,182.38175 39.268984,181.16646 39.781684,179.81795 C 41.500924,175.296 49.100984,166.98976 58.258734,159.62404 C 68.276661,151.56647 71.757031,147.68852 74.184311,141.87921 C 75.434531,138.88704 76.270991,138.20691 79.025641,137.94275 C 81.730781,137.68335 82.409151,137.15432 82.640841,135.12343 C 83.439151,128.12587 88.443831,120.388 89.711561,124.19119 C 89.928301,124.84142 90.972401,126.24019 92.031791,127.29957 C 94.332951,129.60073 97.630461,128.96958 99.855631,125.80206 C 100.68063,124.62769 102.22264,122.79005 103.28233,121.71843 C 105.18308,119.79626 105.22626,119.79597 106.48878,121.69672 C 110.60848,127.89904 109.65457,127.59727 119.46629,125.80219 C 137.39071,122.52288 153.35564,122.64316 153.35564,126.05752 C 153.35564,126.82881 155.48749,127.96343 158.35564,128.71863 C 164.38457,130.30608 165.85289,130.41414 163.85564,129.12342 C 162.54361,128.27552 162.55545,128.15213 163.9501,128.13873 C 166.73718,128.11197 183.47932,140.86493 187.85418,146.34716 C 196.81438,157.57536 200.44561,167.8424 201.92269,186.12487 C 203.19135,201.82765 201.9556,208.46193 194.89778,223.83898 C 192.1246,229.88096 189.85564,235.55658 189.85564,236.45148 C 189.85564,237.64879 192.07528,236.63173 198.25897,232.601 C 202.88081,229.58834 207.11831,227.12343 207.67564,227.12343 C 208.23297,227.12343 208.83897,226.74074 209.02231,226.27301 C 209.20564,225.80528 212.05564,223.94645 215.35564,222.14228 C 225.78,216.44308 226.85564,215.7218 226.85564,214.43088 C 226.85564,213.73714 228.09314,212.37166 229.60564,211.39648 C 231.11814,210.4213 233.48064,208.60856 234.85564,207.36816 C 236.23064,206.12777 239.52769,203.22611 242.18242,200.92003 C 244.83714,198.61396 247.71582,195.35383 248.57947,193.6753 C 249.44312,191.99677 252.05339,188.37343 254.38006,185.62343 C 262.12068,176.47443 273.763,156.37716 278.13128,144.62343 C 282.4093,133.11257 287.70283,115.04695 288.762,108.34318 C 289.30774,104.88905 289.54812,99.714055 289.29617,96.843185 C 289.04423,93.972315 289.11506,92.217495 289.45358,92.943575 C 289.91267,93.928255 290.43445,93.742085 291.50686,92.210985 C 293.28346,89.674545 292.35698,87.672745 286.71649,81.860585 C 283.48374,78.529465 282.85015,77.270015 283.36011,75.188865 C 284.20019,71.760505 288.91758,62.123425 289.75569,62.123425 C 290.12163,62.123425 290.24561,65.227795 290.03122,69.022035 C 289.66815,75.447535 289.79449,75.969235 291.87337,76.629045 C 294.77957,77.551445 296.68955,74.404865 295.97406,69.873425 C 295.90893,69.460925 296.50828,69.123425 297.30595,69.123425 C 298.10362,69.123425 299.11612,68.544735 299.55595,67.837445 C 300.66875,66.047975 305.9035,62.123425 307.17759,62.123425 C 307.75632,62.123425 306.9989,63.408225 305.49444,64.978545 C 303.98998,66.548865 302.89329,68.461365 303.05735,69.228545 C 303.22141,69.995725 302.86054,70.533385 302.25541,70.423345 C 301.64065,70.311555 301.24066,71.414665 301.34889,72.923345 C 301.64536,77.055915 301.69235,77.123425 304.27231,77.123425 C 305.60147,77.123425 306.83897,77.505665 307.02231,77.972865 C 307.20564,78.440055 316.13064,75.533985 326.85564,71.514925 C 343.54684,65.260105 346.51727,64.419885 347.47774,65.681695 C 348.44869,66.957275 349.66103,66.757675 356.47774,64.199915 C 366.64832,60.383725 403.00683,46.888765 422.78633,39.588565 C 431.27321,36.456235 438.69821,33.789315 439.28633,33.662075 C 439.87445,33.534835 441.70564,32.865825 443.35564,32.175375 C 447.64658,30.379805 454.10145,28.030185 455.85564,27.625285 C 458.22665,27.077995 479.17575,19.720855 492.65271,14.702465 C 499.41609,12.183995 505.18413,10.123425 505.47057,10.123425 C 505.75701,10.123425 502.70222,13.748435 498.68215,18.179015 C 494.66208,22.609575 491.03602,26.836605 490.62425,27.572415 C 490.00447,28.679895 488.97239,28.645475 484.62981,27.372485 C 478.78635,25.659525 474.29784,26.366935 466.51523,30.227435 C 464.22745,31.362265 460.6869,32.901525 458.64733,33.648025 C 456.60776,34.394515 450.75776,37.337395 445.64733,40.187755 C 440.5369,43.038115 435.79314,45.389695 435.10564,45.413495 C 434.41814,45.437285 433.85564,45.795055 433.85564,46.208525 C 433.85564,46.622005 432.39314,47.867185 430.60564,48.975595 C 428.81814,50.084005 426.45564,51.808205 425.35564,52.807155 C 424.25564,53.806105 419.0804,58.074925 413.8551,62.293435 C 408.6298,66.511935 403.2298,71.173875 401.8551,72.653285 C 400.4804,74.132695 397.01695,76.847865 394.15856,78.686995 C 384.19954,85.094775 379.68572,91.781015 376.31153,105.12342 C 373.33563,116.89087 376.65501,127.92054 385.72577,136.40518 C 392.03196,142.30388 396.6134,144.55852 407.46075,147.1015 C 412.35294,148.24839 417.93064,149.59158 419.85564,150.08637 C 421.78064,150.58117 426.73064,151.49162 430.85564,152.10961 C 434.98064,152.7276 440.38064,153.63391 442.85564,154.12364 C 448.7329,155.28658 462.82969,157.00041 475.35564,158.07485 C 488.97011,159.24266 510.93813,162.49702 507.85564,162.88943 C 506.48064,163.06447 502.49261,163.8974 498.99335,164.74039 C 492.9681,166.19191 492.38537,166.16765 487.99335,164.28245 C 481.00767,161.28396 469.82253,160.12343 447.90901,160.12343 C 433.1317,160.12343 427.06022,160.49279 423.98137,161.57907 C 421.71222,162.37967 419.85564,162.8626 419.85564,162.65224 C 419.85564,161.26606 411.16469,170.45363 409.00451,174.12343 C 406.73509,177.97881 406.35564,179.76943 406.35564,186.62343 C 406.35564,197.08066 407.874,200.62625 413.43755,203.16075 C 415.80715,204.24022 418.4456,205.12343 419.30078,205.12343 C 421.03074,205.12343 421.2392,205.97031 419.99296,207.93548 C 419.32279,208.99227 417.93262,208.83374 412.84732,207.12063 C 409.37485,205.95084 404.91866,205.09456 402.94469,205.21779 C 400.97071,205.34102 396.88064,204.94796 393.85564,204.34433 C 390.83064,203.7407 384.46306,202.70329 379.70547,202.03896 L 371.0553,200.83111 L 332.29891,237.22727 C 310.9829,257.24516 291.71553,275.19843 289.48255,277.12343 C 287.24955,279.04843 283.89558,282.30767 282.02928,284.36619 C 279.94805,286.66177 277.13182,288.49841 274.74583,289.11619 C 272.60623,289.67017 268.94315,290.6173 266.60564,291.22091 C 261.42374,292.55904 256.36651,296.23484 254.35459,300.12546 C 251.36823,305.90044 252.79419,312.81341 258.76052,321.48518 C 260.41942,323.8963 261.45696,326.22342 261.06617,326.65656 C 260.67538,327.0897 260.86715,327.15189 261.49233,326.79477 C 262.11751,326.43764 263.22208,326.86004 263.94693,327.73343 C 266.47092,330.77466 276.68612,338.09901 283.74776,341.93075 C 287.658,344.05249 290.51942,346.16098 290.10647,346.61627 C 289.69352,347.07157 289.85915,347.15684 290.47455,346.80576 C 291.08994,346.45469 295.27719,347.51185 299.77956,349.15501 C 318.08614,355.83609 338.41247,356.85034 349.10212,351.61612 C 355.34226,348.56063 359.85564,342.6263 359.85564,337.47707 C 359.85564,333.50923 354.51485,323.04952 345.54458,309.44944 C 337.65187,297.48309 333.87894,289.78346 333.86541,285.61506 C 333.84684,279.89548 352.63042,264.51531 373.85564,252.87069 C 388.33523,244.92688 394.57089,241.3703 398.85564,238.61165 C 405.82441,234.12497 410.05627,232.12939 411.15805,232.81033 C 411.72893,233.16315 411.85579,232.9327 411.45113,232.27794 C 410.78342,231.19756 412.10888,230.64157 414.31743,231.07561 C 414.84642,231.17957 415.74642,230.6257 416.31743,229.84479 C 416.88845,229.06389 417.80564,228.27556 418.35564,228.09297 C 422.61747,226.67807 424.85564,225.55974 424.85564,224.84518 C 424.85564,224.3833 425.29209,224.27514 425.82553,224.60482 C 426.35898,224.93451 428.9429,224.06107 431.56758,222.66384 C 434.19226,221.26661 436.70242,220.12343 437.14572,220.12343 C 437.58902,220.12343 440.41383,218.54843 443.42309,216.62343 C 446.43235,214.69843 449.44824,213.11654 450.12506,213.10812 C 450.91964,213.09823 450.82419,212.74935 449.85564,212.12343 C 448.55018,211.27978 448.56652,211.15207 449.98165,211.13874 C 450.87595,211.13032 456.72595,208.71662 462.98165,205.77496 C 469.23734,202.8333 478.63064,198.4458 483.85564,196.02496 C 495.12783,190.80234 510.84639,182.45629 512.60306,180.761 C 513.28914,180.09889 514.40623,177.21758 515.08548,174.35809 C 515.76473,171.49861 517.00339,168.88426 517.83806,168.54842 C 520.2797,167.56601 546.56052,158.26014 556.23305,154.95299 C 563.2273,152.56158 565.28059,152.19298 565.91245,153.21535 C 566.92464,154.8531 563.12366,160.40711 561.62466,159.48068 C 561.02219,159.10833 560.83299,159.27776 561.19577,159.86476 C 561.5528,160.44245 561.0167,161.93791 560.00444,163.188 C 558.01086,165.64996 554.85564,166.6456 554.85564,164.81272 C 554.85564,164.18917 553.86814,164.66649 552.6612,165.87343 C 550.3268,168.20782 550.65252,170.11771 553.0104,167.92105 C 554.63333,166.40909 556.85564,165.79529 556.85564,166.85899 C 556.85564,167.26355 551.3977,173.06562 544.72689,179.75249 L 532.59814,191.91043 L 526.84646,191.38888 C 520.65508,190.82747 514.67807,192.91056 504.85564,199.05306 C 447.14234,235.14437 412.09798,258.21626 395.53301,271.02698 C 390.13057,275.20503 385.25962,278.49978 384.70868,278.34865 C 384.15775,278.19753 383.96823,278.49659 384.28753,279.01323 C 384.60684,279.52988 382.15073,282.37313 378.82951,285.33158 C 373.12231,290.41539 372.78576,290.96806 372.69675,295.40256 C 372.56731,301.85133 376.1832,308.61563 386.347,320.9383 C 402.78397,340.86659 406.55011,352.5017 402.24692,370.05954 C 399.30879,382.04765 386.57541,403.12343 382.27065,403.12343 C 381.4924,403.12343 380.85564,403.51318 380.85564,403.98954 C 380.85564,405.29671 367.84872,410.8444 358.28857,413.61483 C 334.43016,420.52872 306.28257,422.20548 275.17183,418.56609 C 260.2281,416.81795 260.19115,416.82695 253.64446,423.80888 C 251.37718,426.22689 248.37616,428.28914 246.53778,428.69247 C 242.28461,429.62559 232.90471,436.05108 224.48391,443.79999 C 220.70445,447.27788 217.27815,450.12343 216.86991,450.12343 C 215.21318,450.12343 210.70603,458.07397 211.01709,460.44769 C 211.19588,461.81205 210.59172,463.75974 209.67452,464.77589 C 208.50531,466.07122 207.82293,469.30084 207.39145,475.58123 C 206.7082,485.52634 206.43741,486.04503 196.63388,496.18695 C 192.64933,500.30904 189.51733,502.44651 184.54529,504.43695 C 178.12992,507.00521 172.37874,508.06023 174.40564,506.29702 z M 66.855634,263.12343 C 66.855634,262.57343 66.405634,262.12343 65.855634,262.12343 C 65.305634,262.12343 64.855634,262.57343 64.855634,263.12343 C 64.855634,263.67343 65.305634,264.12343 65.855634,264.12343 C 66.405634,264.12343 66.855634,263.67343 66.855634,263.12343 z M 67.348551,260.13488 C 67.698891,259.56802 67.297501,259.40038 66.407574,259.74187 C 64.675154,260.40666 64.358184,261.12343 65.796624,261.12343 C 66.314164,261.12343 67.012534,260.67858 67.348551,260.13488 z M 26.355634,217.12343 C 26.015714,216.57343 25.314164,216.12343 24.796624,216.12343 C 24.279084,216.12343 23.855634,216.57343 23.855634,217.12343 C 23.855634,217.67343 24.557194,218.12343 25.414654,218.12343 C 26.272114,218.12343 26.695554,217.67343 26.355634,217.12343 z M 52.402374,183.37343 C 52.724034,181.86093 53.658044,179.38593 54.477954,177.87343 C 55.881234,175.2848 55.848964,175.12343 53.927954,175.12343 C 52.805534,175.12343 50.462064,176.39678 48.720254,177.95309 C 46.128404,180.26891 45.675024,181.26766 46.223524,183.45309 C 47.189064,187.30007 51.579334,187.24347 52.402374,183.37343 z M 493.85564,164.12343 C 493.85564,163.57343 493.18064,163.12343 492.35564,163.12343 C 491.53064,163.12343 490.85564,163.57343 490.85564,164.12343 C 490.85564,164.67343 491.53064,165.12343 492.35564,165.12343 C 493.18064,165.12343 493.85564,164.67343 493.85564,164.12343 z"
     id="path3311" />
</svg>
