<?xml version="1.0" encoding="UTF-8" standalone="no"?>
<!-- Created with Inkscape (http://www.inkscape.org/) -->
<svg
   xmlns:dc="http://purl.org/dc/elements/1.1/"
   xmlns:cc="http://creativecommons.org/ns#"
   xmlns:rdf="http://www.w3.org/1999/02/22-rdf-syntax-ns#"
   xmlns:svg="http://www.w3.org/2000/svg"
   xmlns="http://www.w3.org/2000/svg"
   xmlns:sodipodi="http://sodipodi.sourceforge.net/DTD/sodipodi-0.dtd"
   xmlns:inkscape="http://www.inkscape.org/namespaces/inkscape"
   id="svg2457"
   sodipodi:version="0.32"
   inkscape:version="0.46"
   width="124"
   height="126"
   version="1.0"
   sodipodi:docname="Peon.svg"
   inkscape:output_extension="org.inkscape.output.svg.inkscape">
  <metadata
     id="metadata2462">
    <rdf:RDF>
      <cc:Work
         rdf:about="">
        <dc:format>image/svg+xml</dc:format>
        <dc:type
           rdf:resource="http://purl.org/dc/dcmitype/StillImage" />
      </cc:Work>
    </rdf:RDF>
  </metadata>
  <defs
     id="defs2460">
    <inkscape:perspective
       sodipodi:type="inkscape:persp3d"
       inkscape:vp_x="0 : 526.18109 : 1"
       inkscape:vp_y="0 : 1000 : 0"
       inkscape:vp_z="744.09448 : 526.18109 : 1"
       inkscape:persp3d-origin="372.04724 : 350.78739 : 1"
       id="perspective2464" />
  </defs>
  <sodipodi:namedview
     inkscape:window-height="909"
     inkscape:window-width="986"
     inkscape:pageshadow="2"
     inkscape:pageopacity="0.0"
     guidetolerance="10.0"
     gridtolerance="10.0"
     objecttolerance="10.0"
     borderopacity="1.0"
     bordercolor="#666666"
     pagecolor="#ffffff"
     id="base"
     showgrid="false"
     inkscape:zoom="3.7936508"
     inkscape:cx="63.112259"
     inkscape:cy="66.265627"
     inkscape:window-x="90"
     inkscape:window-y="83"
     inkscape:current-layer="svg2457" />
  <path
     style="fill:#00ff00;stroke:#000000;stroke-opacity:1;stroke-width:3;stroke-miterlimit:4;stroke-dasharray:none"
     d="M 62.484962,1.049948 C 43.714652,1.049948 28.453712,15.642423 28.453712,33.612448 C 28.453712,43.258849 32.858562,51.930798 39.828712,57.893699 C 39.182552,58.916784 38.091592,59.540941 37.141212,60.206199 C 35.356362,61.406477 33.495102,62.455397 31.703712,63.643699 C 28.183782,65.758114 24.716883,68.034606 21.672463,70.893699 C 20.438854,72.02735 19.276873,73.271844 18.141213,74.518699 C 15.900594,77.027864 13.891443,79.751933 12.016213,82.581199 C 9.9376937,85.783565 8.4720833,89.361641 7.1724629,92.987449 C 5.1501139,98.719831 3.7883129,104.70379 2.672463,110.70619 C 2.100293,114.70725 1.823823,118.76003 1.641213,122.79994 C 1.632798,123.05193 1.684085,123.29297 1.766213,123.51869 L 1.766213,125.01869 L 61.453712,125.01869 L 121.39122,125.04994 L 121.39122,124.04994 L 121.39122,122.36244 C 121.62479,119.47997 121.31379,113.73053 120.79747,111.01869 C 119.9521,106.69509 118.96944,102.35852 117.54747,98.206199 C 116.37033,94.437048 114.80141,90.859354 113.04747,87.362449 C 111.76101,84.759626 110.35652,82.242719 108.73497,79.862449 C 106.75263,76.955456 104.63208,74.10922 102.23497,71.581199 C 100.15777,69.425974 97.825462,67.560626 95.391212,65.893699 C 92.443282,63.785067 89.467882,61.720814 86.641212,59.424949 C 86.063292,58.97481 85.498742,58.5111 84.953712,58.018699 C 92.014432,52.052119 96.484962,43.330721 96.484962,33.612448 C 96.484962,15.642424 81.255272,1.049948 62.484962,1.049948 z"
     id="path2468"
     inkscape:export-filename="/home/hitz/python/pytronos/images/Peon.png"
     inkscape:export-xdpi="102.58099"
     inkscape:export-ydpi="102.58099" />
</svg>
